<svg xmlns="http://www.w3.org/2000/svg" xmlns:xlink="http://www.w3.org/1999/xlink" width="500" zoomAndPan="magnify" viewBox="0 0 375 374.999991" height="500" preserveAspectRatio="xMidYMid meet" version="1.0"><defs><g/><clipPath id="e3b660e87a"><path d="M 46.875 0 L 328.125 0 C 354.011719 0 375 20.988281 375 46.875 L 375 328.125 C 375 354.011719 354.011719 375 328.125 375 L 46.875 375 C 20.988281 375 0 354.011719 0 328.125 L 0 46.875 C 0 20.988281 20.988281 0 46.875 0 Z M 46.875 0 " clip-rule="nonzero"/></clipPath><clipPath id="57c5d854d5"><path d="M 39 69.445312 L 337 69.445312 L 337 288.445312 L 39 288.445312 Z M 39 69.445312 " clip-rule="nonzero"/></clipPath><clipPath id="3c90574b92"><path d="M 41 69.445312 L 334 69.445312 L 334 288.445312 L 41 288.445312 Z M 41 69.445312 " clip-rule="nonzero"/></clipPath></defs><g clip-path="url(#e3b660e87a)"><rect x="-37.5" width="450" fill="#2fdaff" y="-37.499999" height="449.999989" fill-opacity="1"/></g><g clip-path="url(#57c5d854d5)"><path stroke-linecap="butt" transform="matrix(1.551844, 0, 0, 1.551844, -50.630493, 69.600435)" fill="none" stroke-linejoin="miter" d="M 234.145327 0.000726794 L 240.508724 0.000726794 C 248.80027 43.756631 250.02613 88.864254 244.249233 133.020387 C 240.038014 163.681992 232.25997 194.026433 219.341871 222.218697 C 217.48672 225.493531 216.59816 230.517795 211.89861 230.537932 C 208.565882 226.777285 212.646209 222.58872 214.043236 218.933795 C 234.769585 172.718619 242.081953 121.527005 241.623829 71.178642 C 225.09108 73.637914 208.482815 75.520754 191.839311 77.051191 C 176.955306 78.871103 161.995786 80.572707 146.978371 80.227855 C 142.940836 80.222821 138.666687 79.173163 135.802152 76.160115 C 115.8964 78.088264 96.063645 81.395821 76.00938 81.249825 C 71.304796 81.456233 66.396322 80.776598 62.37389 78.183916 C 56.941844 72.346607 59.348256 61.736751 66.851929 58.977936 C 73.5929 58.565121 80.399318 58.716151 87.115119 59.519127 C 103.605076 61.122562 120.089999 62.793961 136.587508 64.324398 C 138.349524 63.02554 139.930305 61.001738 142.276304 60.865811 C 146.293701 60.717298 150.323685 60.744987 154.341083 60.958946 C 183.366529 63.607005 212.386941 66.338131 241.417421 68.93333 C 240.898885 45.813156 238.719019 22.682914 234.145327 0.000726794 Z M 234.145327 0.000726794 " stroke="#000000" stroke-width="0.1" stroke-opacity="1" stroke-miterlimit="10"/></g><g clip-path="url(#3c90574b92)"><path fill="#ffffff" d="M 312.726562 69.601562 L 322.601562 69.601562 C 335.46875 137.503906 337.371094 207.503906 328.40625 276.027344 C 321.871094 323.609375 309.800781 370.699219 289.753906 414.449219 C 286.875 419.53125 285.496094 427.328125 278.203125 427.359375 C 273.03125 421.523438 279.363281 415.023438 281.53125 409.351562 C 313.695312 337.632812 325.042969 258.191406 324.332031 180.058594 C 298.675781 183.875 272.902344 186.796875 247.074219 189.171875 C 223.976562 191.996094 200.761719 194.636719 177.457031 194.101562 C 171.191406 194.09375 164.558594 192.464844 160.113281 187.789062 C 129.222656 190.78125 98.445312 195.914062 67.324219 195.6875 C 60.023438 196.007812 52.40625 194.953125 46.164062 190.929688 C 37.734375 181.871094 41.46875 165.40625 53.113281 161.125 C 63.574219 160.484375 74.136719 160.71875 84.558594 161.964844 C 110.148438 164.453125 135.730469 167.046875 161.332031 169.421875 C 164.066406 167.40625 166.519531 164.265625 170.160156 164.054688 C 176.394531 163.824219 182.648438 163.867188 188.882812 164.199219 C 233.925781 168.308594 278.960938 172.546875 324.011719 176.574219 C 323.207031 140.695312 319.824219 104.800781 312.726562 69.601562 Z M 312.726562 69.601562 " fill-opacity="1" fill-rule="nonzero"/></g><path stroke-linecap="butt" transform="matrix(1.551844, 0, 0, 1.551844, -50.630493, 69.600435)" fill="none" stroke-linejoin="miter" d="M 118.698006 13.940795 C 124.313804 13.190679 130.11839 15.018142 134.629152 18.360939 C 139.817032 22.267581 142.543123 28.67377 143.152278 35.00696 C 142.855252 43.414296 137.992087 51.937422 129.939671 55.088914 C 122.768264 58.396471 113.96825 57.024615 107.83895 52.16145 C 102.593175 47.678376 99.298204 40.801478 99.819258 33.838995 C 100.566856 23.865982 108.72751 15.146517 118.698006 13.940795 Z M 118.698006 13.940795 " stroke="#000000" stroke-width="0.1" stroke-opacity="1" stroke-miterlimit="10"/><path fill="#ffffff" d="M 133.570312 91.234375 C 142.285156 90.070312 151.292969 92.90625 158.292969 98.09375 C 166.34375 104.15625 170.574219 114.097656 171.519531 123.925781 C 171.058594 136.972656 163.511719 150.199219 151.015625 155.089844 C 139.886719 160.222656 126.230469 158.09375 116.71875 150.546875 C 108.578125 143.589844 103.464844 132.917969 104.273438 122.113281 C 105.433594 106.636719 118.097656 93.105469 133.570312 91.234375 Z M 133.570312 91.234375 " fill-opacity="1" fill-rule="nonzero"/><g fill="#ffffff" fill-opacity="1"><g transform="translate(81.392776, 284.624614)"><g><path d="M 51.421875 -19.5 C 51.421875 -13.050781 49.082031 -8.019531 44.40625 -4.40625 C 39.726562 -0.800781 33.378906 1 25.359375 1 C 16.671875 1 9.988281 -0.117188 5.3125 -2.359375 L 5.3125 -10.578125 C 8.320312 -9.304688 11.597656 -8.300781 15.140625 -7.5625 C 18.679688 -6.832031 22.191406 -6.46875 25.671875 -6.46875 C 31.347656 -6.46875 35.625 -7.546875 38.5 -9.703125 C 41.375 -11.859375 42.8125 -14.859375 42.8125 -18.703125 C 42.8125 -21.234375 42.300781 -23.3125 41.28125 -24.9375 C 40.257812 -26.5625 38.550781 -28.054688 36.15625 -29.421875 C 33.769531 -30.796875 30.140625 -32.347656 25.265625 -34.078125 C 18.441406 -36.523438 13.566406 -39.414062 10.640625 -42.75 C 7.722656 -46.09375 6.265625 -50.457031 6.265625 -55.84375 C 6.265625 -61.488281 8.382812 -65.976562 12.625 -69.3125 C 16.875 -72.65625 22.488281 -74.328125 29.46875 -74.328125 C 36.757812 -74.328125 43.460938 -72.992188 49.578125 -70.328125 L 46.921875 -62.90625 C 40.867188 -65.445312 34.984375 -66.71875 29.265625 -66.71875 C 24.753906 -66.71875 21.226562 -65.75 18.6875 -63.8125 C 16.15625 -61.875 14.890625 -59.179688 14.890625 -55.734375 C 14.890625 -53.191406 15.351562 -51.109375 16.28125 -49.484375 C 17.21875 -47.867188 18.796875 -46.382812 21.015625 -45.03125 C 23.242188 -43.675781 26.648438 -42.179688 31.234375 -40.546875 C 38.910156 -37.804688 44.191406 -34.863281 47.078125 -31.71875 C 49.972656 -28.582031 51.421875 -24.507812 51.421875 -19.5 Z M 51.421875 -19.5 "/></g></g><g transform="translate(137.736038, 284.624614)"><g><path d="M 18.59375 -30.46875 L 18.59375 0 L 10.078125 0 L 10.078125 -73.28125 L 30.171875 -73.28125 C 39.160156 -73.28125 45.800781 -71.554688 50.09375 -68.109375 C 54.394531 -64.671875 56.546875 -59.492188 56.546875 -52.578125 C 56.546875 -42.890625 51.628906 -36.34375 41.796875 -32.9375 L 61.703125 0 L 51.625 0 L 33.890625 -30.46875 Z M 18.59375 -37.796875 L 30.28125 -37.796875 C 36.289062 -37.796875 40.695312 -38.988281 43.5 -41.375 C 46.3125 -43.769531 47.71875 -47.351562 47.71875 -52.125 C 47.71875 -56.96875 46.285156 -60.457031 43.421875 -62.59375 C 40.566406 -64.738281 35.984375 -65.8125 29.671875 -65.8125 L 18.59375 -65.8125 Z M 18.59375 -37.796875 "/></g></g></g></svg>